# xmcd CD database file
#
# Track frame offsets:
#	150
#	13275
#	32175
#	58209
#	79462
#	105190
#	130333
#	144554
#	171760
#	189478
#	211565
#	228796
#
# Disc length: 3317 seconds
#
# Revision: 0
# Processed by: cddbd v1.5.2PL0 Copyright (c) Steve Scherf et al.
# Submitted via: CDex 1.70beta2
#
DISCID=9f0cf30c
DTITLE=Deded Band - The Blues
DYEAR=2019
DGENRE=Blues
TTITLE0=No 5
TTITLE1=Bály
TTITLE2=Pivní blues
TTITLE3=Dejchám
TTITLE4=Karel Gott
TTITLE5=Fráňa Šrámek
TTITLE6=Seno
TTITLE7=Penze
TTITLE8=Kámen
TTITLE9=Stáří
TTITLE10=Kvartální alkoholik
TTITLE11=No 2
EXTD=YEAR: 2019
EXTT0=
EXTT1=
EXTT2=
EXTT3=
EXTT4=
EXTT5=
EXTT6=
EXTT7=
EXTT8=
EXTT9=
EXTT10=
EXTT11=
PLAYORDER=
